<svg width="28" height="28" viewBox="0 0 28 28" fill="none" xmlns="http://www.w3.org/2000/svg">
<path d="M26.5923 14.0041C26.2211 14.0041 25.8651 14.1515 25.6026 14.414C25.3402 14.6765 25.1927 15.0325 25.1927 15.4037V23.8012C25.1927 24.1724 25.0452 24.5284 24.7828 24.7909C24.5203 25.0534 24.1643 25.2008 23.7931 25.2008H4.19878C3.82759 25.2008 3.4716 25.0534 3.20912 24.7909C2.94665 24.5284 2.79919 24.1724 2.79919 23.8012V4.2069C2.79919 3.8357 2.94665 3.47971 3.20912 3.21724C3.4716 2.95476 3.82759 2.8073 4.19878 2.8073H12.5963C12.9675 2.8073 13.3235 2.65985 13.586 2.39737C13.8485 2.1349 13.9959 1.7789 13.9959 1.40771C13.9959 1.03651 13.8485 0.680522 13.586 0.418047C13.3235 0.155572 12.9675 0.00811532 12.5963 0.00811532H4.19878C3.0852 0.00811532 2.01722 0.450486 1.2298 1.23791C0.442371 2.02533 0 3.09331 0 4.2069V23.8012C0 24.9148 0.442371 25.9828 1.2298 26.7702C2.01722 27.5576 3.0852 28 4.19878 28H23.7931C24.9067 28 25.9747 27.5576 26.7621 26.7702C27.5495 25.9828 27.9919 24.9148 27.9919 23.8012V15.4037C27.9919 15.0325 27.8444 14.6765 27.582 14.414C27.3195 14.1515 26.9635 14.0041 26.5923 14.0041ZM5.59838 15.0677V21.002C5.59838 21.3732 5.74583 21.7292 6.00831 21.9917C6.27078 22.2542 6.62678 22.4016 6.99797 22.4016H12.9322C13.1164 22.4027 13.299 22.3674 13.4696 22.2977C13.6401 22.2281 13.7952 22.1255 13.926 21.9957L23.6112 12.2966L27.586 8.40568C27.7172 8.27557 27.8213 8.12077 27.8924 7.95022C27.9634 7.77967 28 7.59673 28 7.41197C28 7.22721 27.9634 7.04427 27.8924 6.87372C27.8213 6.70316 27.7172 6.54837 27.586 6.41826L21.6517 0.413998C21.5216 0.282816 21.3668 0.178694 21.1963 0.107638C21.0257 0.0365829 20.8428 0 20.658 0C20.4732 0 20.2903 0.0365829 20.1198 0.107638C19.9492 0.178694 19.7944 0.282816 19.6643 0.413998L15.7174 4.37485L6.00426 14.074C5.87454 14.2048 5.77192 14.3599 5.70227 14.5304C5.63262 14.701 5.59731 14.8836 5.59838 15.0677ZM20.658 3.38114L24.6189 7.34199L22.6314 9.32941L18.6706 5.36856L20.658 3.38114ZM8.39757 15.6416L16.6972 7.34199L20.658 11.3028L12.3584 19.6024H8.39757V15.6416Z" fill="#2A027A"/>
</svg>
