<svg width="177" height="34" viewBox="0 0 177 34" fill="none" xmlns="http://www.w3.org/2000/svg">
<path d="M109.696 32.548H105.772V3.892H109.696V32.548ZM125.464 32.728V30.82C124.288 32.356 122.596 33.124 120.388 33.124C117.988 33.124 116.212 32.452 115.06 31.108C114.244 30.124 113.836 28.924 113.836 27.508C113.836 22.612 117.436 20.164 124.636 20.164H125.176V19.516C125.176 17.164 124.084 15.988 121.9 15.988C119.932 15.988 117.988 16.504 116.068 17.536V14.008C117.892 13.072 119.908 12.604 122.116 12.604C124.42 12.604 126.1 13.144 127.156 14.224C128.284 15.4 128.848 17.224 128.848 19.696V28.084C128.848 30.292 128.92 31.84 129.064 32.728H125.464ZM125.176 23.512H124.42C122.548 23.512 121.108 23.68 120.1 24.016C118.492 24.544 117.688 25.588 117.688 27.148C117.688 28.876 118.684 29.74 120.676 29.74C123.676 29.74 125.176 27.916 125.176 24.268V23.512ZM149.401 13.108L142.561 32.548H138.997L132.409 13.108H136.333L140.869 27.256L145.549 13.108H149.401ZM163.398 32.728V30.82C162.222 32.356 160.53 33.124 158.322 33.124C155.922 33.124 154.146 32.452 152.994 31.108C152.178 30.124 151.77 28.924 151.77 27.508C151.77 22.612 155.37 20.164 162.57 20.164H163.11V19.516C163.11 17.164 162.018 15.988 159.834 15.988C157.866 15.988 155.922 16.504 154.002 17.536V14.008C155.826 13.072 157.842 12.604 160.05 12.604C162.354 12.604 164.034 13.144 165.09 14.224C166.218 15.4 166.782 17.224 166.782 19.696V28.084C166.782 30.292 166.854 31.84 166.998 32.728H163.398ZM163.11 23.512H162.354C160.482 23.512 159.042 23.68 158.034 24.016C156.426 24.544 155.622 25.588 155.622 27.148C155.622 28.876 156.618 29.74 158.61 29.74C161.61 29.74 163.11 27.916 163.11 24.268V23.512Z" fill="white"/>
<path d="M73.336 5.908L63.22 32.548H59.512L49.612 5.908H53.86L61.42 27.58L69.268 5.908H73.336ZM91.8555 24.232H79.7235C79.7955 25.96 80.2635 27.304 81.1275 28.264C82.0155 29.296 83.2395 29.812 84.7995 29.812C86.9595 29.812 88.8675 29.344 90.5235 28.408V32.044C88.6035 32.764 86.6595 33.124 84.6915 33.124C81.5955 33.124 79.2915 32.14 77.7795 30.172C76.4595 28.42 75.7995 25.972 75.7995 22.828C75.7995 19.804 76.5315 17.344 77.9955 15.448C79.4595 13.552 81.4275 12.604 83.8995 12.604C86.6595 12.604 88.7235 13.588 90.0915 15.556C91.2675 17.236 91.8555 19.456 91.8555 22.216V24.232ZM87.9315 20.812C87.9315 19.468 87.5835 18.34 86.8875 17.428C86.1675 16.468 85.2195 15.988 84.0435 15.988C82.8435 15.988 81.8235 16.48 80.9835 17.464C80.1435 18.448 79.7235 19.564 79.7235 20.812H87.9315ZM100.169 32.548H96.2447V3.892H100.169V32.548Z" fill="#503B85"/>
<path d="M43.5414 28.8871C43.2439 28.3827 42.8045 27.9419 42.2521 27.6211L22.4927 16.1385V14.5154C22.4923 14.4595 22.5213 14.4091 22.5645 14.3734C22.7412 14.3591 22.9751 14.333 23.2503 14.2831C23.814 14.1797 24.5547 13.9896 25.2985 13.5452C26.3894 12.8882 27.2937 11.9935 27.9279 10.9359C28.5617 9.87839 28.9236 8.65566 28.9232 7.36585C28.9239 5.33639 28.0301 3.48568 26.5938 2.15663C25.1592 0.826475 23.1608 0 20.97 0C19.3279 0 17.7892 0.463972 16.5215 1.25838C15.2531 2.05262 14.2472 3.17435 13.6419 4.49806C13.3144 5.21519 13.6772 6.04278 14.4515 6.34631C15.2261 6.64936 16.1202 6.31424 16.4474 5.59719C16.8188 4.78321 17.4434 4.08638 18.2273 3.59614C19.012 3.10607 19.9483 2.82084 20.97 2.82084C22.3291 2.82084 23.5467 3.32699 24.4398 4.15227C25.3303 4.97867 25.8765 6.10629 25.8768 7.36585C25.8765 8.16909 25.6551 8.91352 25.2644 9.56642C24.8737 10.2182 24.3123 10.7743 23.6387 11.1795C23.3763 11.3417 22.9856 11.4605 22.6699 11.5151C22.5128 11.543 22.3764 11.5579 22.2875 11.5644C22.2427 11.5686 22.2102 11.5704 22.1933 11.571H22.1843L21.9777 11.5734L21.7749 11.6292C20.3943 12.0077 19.4468 13.1817 19.4465 14.5155V16.182L1.59655 27.7137L1.59689 27.7126C0.577157 28.3714 -0.000944155 29.439 1.15751e-06 30.5465C1.15751e-06 30.8922 0.056548 31.2422 0.171962 31.5814C0.660431 33.0215 2.10074 34 3.72969 34H40.2701C41.9329 34 43.3941 32.9811 43.8543 31.5012C43.9516 31.1857 44 30.8636 44 30.5464C44 29.9612 43.8393 29.392 43.5414 28.8871ZM40.927 30.7223C40.843 30.9926 40.5745 31.1797 40.2701 31.1797H3.72969C3.43106 31.1797 3.16697 30.9991 3.07785 30.7365C3.05568 30.6724 3.04614 30.6088 3.04614 30.5464C3.04674 30.3432 3.15133 30.1471 3.33833 30.0271L21.0143 18.6095L40.6331 30.0099C40.7368 30.0706 40.8138 30.149 40.8693 30.2417C40.9245 30.3343 40.9543 30.4395 40.9543 30.5465C40.9543 30.6041 40.9453 30.6617 40.927 30.7223Z" fill="white"/>
</svg>
