<svg width="147" height="54" viewBox="0 0 147 54" fill="none" xmlns="http://www.w3.org/2000/svg">
<path d="M24.336 2.908L14.22 29.548H10.512L0.612 2.908H4.86L12.42 24.58L20.268 2.908H24.336ZM42.8555 21.232H30.7235C30.7955 22.96 31.2635 24.304 32.1275 25.264C33.0155 26.296 34.2395 26.812 35.7995 26.812C37.9595 26.812 39.8675 26.344 41.5235 25.408V29.044C39.6035 29.764 37.6595 30.124 35.6915 30.124C32.5955 30.124 30.2915 29.14 28.7795 27.172C27.4595 25.42 26.7995 22.972 26.7995 19.828C26.7995 16.804 27.5315 14.344 28.9955 12.448C30.4595 10.552 32.4275 9.604 34.8995 9.604C37.6595 9.604 39.7235 10.588 41.0915 12.556C42.2675 14.236 42.8555 16.456 42.8555 19.216V21.232ZM38.9315 17.812C38.9315 16.468 38.5835 15.34 37.8875 14.428C37.1675 13.468 36.2195 12.988 35.0435 12.988C33.8435 12.988 32.8235 13.48 31.9835 14.464C31.1435 15.448 30.7235 16.564 30.7235 17.812H38.9315ZM51.1687 29.548H47.2447V0.891999H51.1687V29.548Z" fill="#503B85"/>
<path d="M117.801 20.4636C119.242 19.6921 120.904 19.6361 122.407 20.1746C123.91 20.7116 125.276 21.8494 126.128 23.4421C126.67 24.4541 126.944 25.5414 126.971 26.5945C126.998 27.6476 126.78 28.6684 126.338 29.5681C126.035 30.1785 125.627 30.5883 125.3 30.8679C125.139 31.004 124.996 31.107 124.885 31.1804C124.872 31.2236 124.875 31.2734 124.898 31.3171L125.58 32.5906L143.405 34.6423C143.903 34.6995 144.378 34.8903 144.786 35.1814C145.194 35.4726 145.538 35.863 145.784 36.322C145.917 36.5709 146.021 36.841 146.09 37.1228C146.408 38.4461 145.874 39.7598 144.78 40.3455L120.733 53.2156C119.661 53.7893 118.302 53.5281 117.376 52.5701C117.157 52.3446 116.973 52.0902 116.828 51.8191C116.362 50.9504 116.295 49.909 116.689 49.033V49.0339L123.593 33.698L122.893 32.3904C122.333 31.3437 122.464 30.0887 123.214 29.3054L123.324 29.1902L123.459 29.115L123.465 29.1121C123.476 29.1056 123.496 29.093 123.524 29.074C123.58 29.0375 123.663 28.9773 123.755 28.9001C123.939 28.7461 124.147 28.5153 124.252 28.2957C124.525 27.7406 124.661 27.1067 124.644 26.4578C124.627 25.8079 124.46 25.1457 124.123 24.5154C123.594 23.5273 122.761 22.8347 121.828 22.4998C120.894 22.1667 119.879 22.198 118.985 22.6765C118.313 23.0363 117.816 23.59 117.506 24.2507C117.196 24.9114 117.077 25.6785 117.175 26.448C117.26 27.1259 116.813 27.704 116.176 27.739C115.539 27.7735 114.953 27.2519 114.867 26.574C114.709 25.3221 114.9 24.0873 115.401 23.0173C115.902 21.9475 116.72 21.0419 117.801 20.4636ZM118.807 50.2351C118.735 50.3951 118.748 50.5862 118.833 50.7458C118.859 50.7947 118.892 50.8411 118.933 50.8835C119.102 51.0582 119.352 51.1069 119.549 51.0017L143.595 38.1326C143.796 38.0254 143.894 37.7844 143.836 37.5427C143.822 37.4889 143.804 37.4404 143.78 37.3953C143.735 37.3114 143.672 37.2386 143.596 37.1853C143.521 37.1321 143.437 37.0978 143.343 37.0867L125.644 35.0505L118.807 50.2351Z" fill="#503B85"/>
<path d="M60.696 29.548H56.772V0.891999H60.696V29.548ZM76.464 29.728V27.82C75.288 29.356 73.596 30.124 71.388 30.124C68.988 30.124 67.212 29.452 66.06 28.108C65.244 27.124 64.836 25.924 64.836 24.508C64.836 19.612 68.436 17.164 75.636 17.164H76.176V16.516C76.176 14.164 75.084 12.988 72.9 12.988C70.932 12.988 68.988 13.504 67.068 14.536V11.008C68.892 10.072 70.908 9.604 73.116 9.604C75.42 9.604 77.1 10.144 78.156 11.224C79.284 12.4 79.848 14.224 79.848 16.696V25.084C79.848 27.292 79.92 28.84 80.064 29.728H76.464ZM76.176 20.512H75.42C73.548 20.512 72.108 20.68 71.1 21.016C69.492 21.544 68.688 22.588 68.688 24.148C68.688 25.876 69.684 26.74 71.676 26.74C74.676 26.74 76.176 24.916 76.176 21.268V20.512ZM100.401 10.108L93.5612 29.548H89.9972L83.4092 10.108H87.3332L91.8692 24.256L96.5492 10.108H100.401ZM114.398 29.728V27.82C113.222 29.356 111.53 30.124 109.322 30.124C106.922 30.124 105.146 29.452 103.994 28.108C103.178 27.124 102.77 25.924 102.77 24.508C102.77 19.612 106.37 17.164 113.57 17.164H114.11V16.516C114.11 14.164 113.018 12.988 110.834 12.988C108.866 12.988 106.922 13.504 105.002 14.536V11.008C106.826 10.072 108.842 9.604 111.05 9.604C113.354 9.604 115.034 10.144 116.09 11.224C117.218 12.4 117.782 14.224 117.782 16.696V25.084C117.782 27.292 117.854 28.84 117.998 29.728H114.398ZM114.11 20.512H113.354C111.482 20.512 110.042 20.68 109.034 21.016C107.426 21.544 106.622 22.588 106.622 24.148C106.622 25.876 107.618 26.74 109.61 26.74C112.61 26.74 114.11 24.916 114.11 21.268V20.512Z" fill="white"/>
</svg>
