<svg width="29" height="32" viewBox="0 0 29 32" fill="none" xmlns="http://www.w3.org/2000/svg">
<path d="M26.9167 6.33333H20.5833V4.75C20.5833 3.49022 20.0829 2.28204 19.1921 1.39124C18.3013 0.500445 17.0931 0 15.8333 0H12.6667C11.4069 0 10.1987 0.500445 9.30791 1.39124C8.41711 2.28204 7.91667 3.49022 7.91667 4.75V6.33333H1.58333C1.16341 6.33333 0.76068 6.50015 0.463748 6.79708C0.166815 7.09401 0 7.49674 0 7.91667C0 8.33659 0.166815 8.73932 0.463748 9.03625C0.76068 9.33318 1.16341 9.5 1.58333 9.5H3.16667V26.9167C3.16667 28.1764 3.66711 29.3846 4.55791 30.2754C5.44871 31.1662 6.65689 31.6667 7.91667 31.6667H20.5833C21.8431 31.6667 23.0513 31.1662 23.9421 30.2754C24.8329 29.3846 25.3333 28.1764 25.3333 26.9167V9.5H26.9167C27.3366 9.5 27.7393 9.33318 28.0363 9.03625C28.3332 8.73932 28.5 8.33659 28.5 7.91667C28.5 7.49674 28.3332 7.09401 28.0363 6.79708C27.7393 6.50015 27.3366 6.33333 26.9167 6.33333ZM11.0833 4.75C11.0833 4.33007 11.2501 3.92735 11.5471 3.63041C11.844 3.33348 12.2467 3.16667 12.6667 3.16667H15.8333C16.2533 3.16667 16.656 3.33348 16.9529 3.63041C17.2499 3.92735 17.4167 4.33007 17.4167 4.75V6.33333H11.0833V4.75ZM22.1667 26.9167C22.1667 27.3366 21.9999 27.7393 21.7029 28.0363C21.406 28.3332 21.0033 28.5 20.5833 28.5H7.91667C7.49674 28.5 7.09401 28.3332 6.79708 28.0363C6.50015 27.7393 6.33333 27.3366 6.33333 26.9167V9.5H22.1667V26.9167Z" fill="#990000"/>
</svg>
